{
  "accessors": [
    {
      "bufferView": 2,
      "componentType": 5126,
      "count": 1801,
      "max": [
        1.304658055305481,
        1.3772920370101929,
        7.133938789367676
      ],
      "min": [
        -1.3046640157699585,
        -1.8155180215835571,
        5.089290142059326
      ],
      "type": "VEC3"
    },
    {
      "bufferView": 2,
      "byteOffset": 21612,
      "componentType": 5126,
      "count": 1801,
      "max": [
        0.9987840056419373,
        0.9999406337738037,
        0.999742329120636
      ],
      "min": [
        -0.9987840056419373,
        -0.9999831914901733,
        -0.9999796152114868
      ],
      "type": "VEC3"
    },
    {
      "bufferView": 1,
      "componentType": 5126,
      "count": 1801,
      "max": [
        2.9803199768066406,
        -0.028661999851465225
      ],
      "min": [
        2.005929946899414,
        -0.9838730096817017
      ],
      "type": "VEC2"
    },
    {
      "bufferView": 0,
      "componentType": 5125,
      "count": 9966,
      "type": "SCALAR"
    },
    {
      "bufferView": 2,
      "byteOffset": 43224,
      "componentType": 5126,
      "count": 3496,
      "max": [
        1.1239500045776367,
        1.080273985862732,
        6.65172004699707
      ],
      "min": [
        -1.1239559650421143,
        -1.4659219980239868,
        4.176641941070557
      ],
      "type": "VEC3"
    },
    {
      "bufferView": 2,
      "byteOffset": 85176,
      "componentType": 5126,
      "count": 3496,
      "max": [
        0.9999619722366333,
        0.9995006918907166,
        0.9996505379676819
      ],
      "min": [
        -0.9999619722366333,
        -0.9994617104530334,
        -0.9998430609703064
      ],
      "type": "VEC3"
    },
    {
      "bufferView": 1,
      "byteOffset": 14408,
      "componentType": 5126,
      "count": 3496,
      "max": [
        1.971019983291626,
        -0.01157000008970499
      ],
      "min": [
        1.0228500366210938,
        -0.983680009841919
      ],
      "type": "VEC2"
    },
    {
      "bufferView": 0,
      "byteOffset": 39864,
      "componentType": 5125,
      "count": 19848,
      "type": "SCALAR"
    },
    {
      "bufferView": 2,
      "byteOffset": 127128,
      "componentType": 5126,
      "count": 3738,
      "max": [
        3.8504459857940674,
        0.6166539788246155,
        4.39661979675293
      ],
      "min": [
        -3.850451946258545,
        -0.8523439764976501,
        3.436295986175537
      ],
      "type": "VEC3"
    },
    {
      "bufferView": 2,
      "byteOffset": 171984,
      "componentType": 5126,
      "count": 3738,
      "max": [
        0.999826967716217,
        1.0,
        0.9999966621398926
      ],
      "min": [
        -0.999826967716217,
        -1.0,
        -0.9999880790710449
      ],
      "type": "VEC3"
    },
    {
      "bufferView": 1,
      "byteOffset": 42376,
      "componentType": 5126,
      "count": 3738,
      "max": [
        5.962289810180664,
        -0.008159000426530838
      ],
      "min": [
        5.034639835357666,
        -0.9876030087471008
      ],
      "type": "VEC2"
    },
    {
      "bufferView": 0,
      "byteOffset": 119256,
      "componentType": 5125,
      "count": 19140,
      "type": "SCALAR"
    },
    {
      "bufferView": 2,
      "byteOffset": 216840,
      "componentType": 5126,
      "count": 3204,
      "max": [
        0.6801720261573792,
        -0.3235580027103424,
        5.886648178100586
      ],
      "min": [
        -0.6801720261573792,
        -1.0760539770126343,
        4.770545959472656
      ],
      "type": "VEC3"
    },
    {
      "bufferView": 2,
      "byteOffset": 255288,
      "componentType": 5126,
      "count": 3204,
      "max": [
        0.9996516108512878,
        0.9996848702430725,
        0.9985626339912415
      ],
      "min": [
        -0.9996532797813416,
        -0.999473512172699,
        -1.0
      ],
      "type": "VEC3"
    },
    {
      "bufferView": 1,
      "byteOffset": 72280,
      "componentType": 5126,
      "count": 3204,
      "max": [
        8.001779556274414,
        0.11507999897003174
      ],
      "min": [
        7.051559925079346,
        -1.0975899696350098
      ],
      "type": "VEC2"
    },
    {
      "bufferView": 0,
      "byteOffset": 195816,
      "componentType": 5125,
      "count": 18432,
      "type": "SCALAR"
    },
    {
      "bufferView": 2,
      "byteOffset": 293736,
      "componentType": 5126,
      "count": 2947,
      "max": [
        1.2331600189208984,
        0.6881939768791199,
        4.30217981338501
      ],
      "min": [
        -1.2331600189208984,
        -1.1645519733428955,
        0.3743849992752075
      ],
      "type": "VEC3"
    },
    {
      "bufferView": 2,
      "byteOffset": 329100,
      "componentType": 5126,
      "count": 2947,
      "max": [
        0.999964714050293,
        0.9999998807907104,
        0.9992274045944214
      ],
      "min": [
        -0.999964714050293,
        -0.9993628263473511,
        -0.998909056186676
      ],
      "type": "VEC3"
    },
    {
      "bufferView": 1,
      "byteOffset": 97912,
      "componentType": 5126,
      "count": 2947,
      "max": [
        3.9873299598693848,
        -0.01583000086247921
      ],
      "min": [
        3.024090051651001,
        -0.9781339764595032
      ],
      "type": "VEC2"
    },
    {
      "bufferView": 0,
      "byteOffset": 269544,
      "componentType": 5125,
      "count": 14532,
      "type": "SCALAR"
    },
    {
      "bufferView": 2,
      "byteOffset": 364464,
      "componentType": 5126,
      "count": 1079,
      "max": [
        2.2276980876922607,
        0.5805220007896423,
        4.70088005065918
      ],
      "min": [
        -2.2276980876922607,
        -1.1104329824447632,
        2.987159013748169
      ],
      "type": "VEC3"
    },
    {
      "bufferView": 2,
      "byteOffset": 377412,
      "componentType": 5126,
      "count": 1079,
      "max": [
        0.9979705214500427,
        0.999998927116394,
        0.9998829364776611
      ],
      "min": [
        -0.9973929524421692,
        -0.9999973773956299,
        -0.9954727292060852
      ],
      "type": "VEC3"
    },
    {
      "bufferView": 1,
      "byteOffset": 121488,
      "componentType": 5126,
      "count": 1079,
      "max": [
        4.983570098876953,
        -0.03678999841213226
      ],
      "min": [
        4.023210048675537,
        -0.9035599827766418
      ],
      "type": "VEC2"
    },
    {
      "bufferView": 0,
      "byteOffset": 327672,
      "componentType": 5125,
      "count": 5772,
      "type": "SCALAR"
    },
    {
      "bufferView": 2,
      "byteOffset": 390360,
      "componentType": 5126,
      "count": 1238,
      "max": [
        1.2335330247879028,
        0.8102380037307739,
        6.513539791107178
      ],
      "min": [
        -1.2548530101776123,
        -1.2390539646148682,
        -0.004007000010460615
      ],
      "type": "VEC3"
    },
    {
      "bufferView": 2,
      "byteOffset": 405216,
      "componentType": 5126,
      "count": 1238,
      "max": [
        0.9993094205856323,
        0.9986732602119446,
        0.9992095232009888
      ],
      "min": [
        -0.9993094205856323,
        -0.9999758005142212,
        -1.0
      ],
      "type": "VEC3"
    },
    {
      "bufferView": 1,
      "byteOffset": 130120,
      "componentType": 5126,
      "count": 1238,
      "max": [
        6.96042013168335,
        -0.004468000028282404
      ],
      "min": [
        1.7079499959945679,
        -0.987080991268158
      ],
      "type": "VEC2"
    },
    {
      "bufferView": 0,
      "byteOffset": 350760,
      "componentType": 5125,
      "count": 6225,
      "type": "SCALAR"
    },
    {
      "bufferView": 2,
      "byteOffset": 420072,
      "componentType": 5126,
      "count": 2987,
      "max": [
        1.4201099872589111,
        0.389847993850708,
        6.199379920959473
      ],
      "min": [
        -1.4201099872589111,
        -1.9140859842300415,
        4.042374134063721
      ],
      "type": "VEC3"
    },
    {
      "bufferView": 2,
      "byteOffset": 455916,
      "componentType": 5126,
      "count": 2987,
      "max": [
        0.9998718500137329,
        0.9999167919158936,
        0.9998118281364441
      ],
      "min": [
        -0.9998099207878113,
        -0.9999923706054688,
        -0.9998569488525391
      ],
      "type": "VEC3"
    },
    {
      "bufferView": 1,
      "byteOffset": 140024,
      "componentType": 5126,
      "count": 2987,
      "max": [
        0.987978994846344,
        -0.02379000000655651
      ],
      "min": [
        0.016839999705553055,
        -0.985040009021759
      ],
      "type": "VEC2"
    },
    {
      "bufferView": 0,
      "byteOffset": 375660,
      "componentType": 5125,
      "count": 16542,
      "type": "SCALAR"
    }
  ],
  "asset": {
    "extras": {
      "author": "marcozdesigner (https://sketchfab.com/marcozdesigner)",
      "license": "CC-BY-4.0 (http://creativecommons.org/licenses/by/4.0/)",
      "source": "https://sketchfab.com/3d-models/mario-bros-12v-e235dce325fd4461a15bc8730e10be80",
      "title": "Mario Bros 1.2v"
    },
    "generator": "Sketchfab-12.66.0",
    "version": "2.0"
  },
  "bufferViews": [
    {
      "buffer": 0,
      "byteLength": 441828,
      "name": "floatBufferViews",
      "target": 34963
    },
    {
      "buffer": 0,
      "byteLength": 163920,
      "byteOffset": 441828,
      "byteStride": 8,
      "name": "floatBufferViews",
      "target": 34962
    },
    {
      "buffer": 0,
      "byteLength": 491760,
      "byteOffset": 605748,
      "byteStride": 12,
      "name": "floatBufferViews",
      "target": 34962
    }
  ],
  "buffers": [
    {
      "byteLength": 1097508,
      "uri": "scene.bin"
    }
  ],
  "images": [
    {
      "uri": "textures/submesh_0.001_baseColor.png"
    },
    {
      "uri": "textures/submesh_1.001_baseColor.png"
    },
    {
      "uri": "textures/submesh_2.001_baseColor.png"
    },
    {
      "uri": "textures/submesh_2.001_metallicRoughness.png"
    },
    {
      "uri": "textures/submesh_3.001_baseColor.png"
    },
    {
      "uri": "textures/submesh_4.001_baseColor.png"
    },
    {
      "uri": "textures/submesh_5.001_baseColor.png"
    },
    {
      "uri": "textures/submesh_6.001_baseColor.png"
    },
    {
      "uri": "textures/submesh_7.001_baseColor.png"
    }
  ],
  "materials": [
    {
      "doubleSided": true,
      "name": "submesh_0.001",
      "pbrMetallicRoughness": {
        "baseColorTexture": {
          "index": 0
        },
        "metallicFactor": 0.0,
        "roughnessFactor": 0.6
      }
    },
    {
      "doubleSided": true,
      "name": "submesh_1.001",
      "pbrMetallicRoughness": {
        "baseColorTexture": {
          "index": 1
        },
        "metallicFactor": 0.0,
        "roughnessFactor": 0.6
      }
    },
    {
      "doubleSided": true,
      "name": "submesh_2.001",
      "pbrMetallicRoughness": {
        "baseColorTexture": {
          "index": 2
        },
        "metallicFactor": 0.0,
        "metallicRoughnessTexture": {
          "index": 3
        }
      }
    },
    {
      "doubleSided": true,
      "name": "submesh_3.001",
      "pbrMetallicRoughness": {
        "baseColorTexture": {
          "index": 4
        },
        "metallicFactor": 0.0,
        "roughnessFactor": 0.6
      }
    },
    {
      "doubleSided": true,
      "name": "submesh_4.001",
      "pbrMetallicRoughness": {
        "baseColorTexture": {
          "index": 5
        },
        "metallicFactor": 0.0,
        "roughnessFactor": 0.6
      }
    },
    {
      "doubleSided": true,
      "name": "submesh_5.001",
      "pbrMetallicRoughness": {
        "baseColorTexture": {
          "index": 6
        },
        "metallicFactor": 0.0,
        "roughnessFactor": 0.6
      }
    },
    {
      "doubleSided": true,
      "name": "submesh_6.001",
      "pbrMetallicRoughness": {
        "baseColorTexture": {
          "index": 7
        },
        "metallicFactor": 0.0,
        "roughnessFactor": 0.6
      }
    },
    {
      "doubleSided": true,
      "name": "submesh_7.001",
      "pbrMetallicRoughness": {
        "baseColorTexture": {
          "index": 8
        },
        "metallicFactor": 0.0,
        "roughnessFactor": 0.6
      }
    }
  ],
  "meshes": [
    {
      "name": "Object_0",
      "primitives": [
        {
          "attributes": {
            "NORMAL": 1,
            "POSITION": 0,
            "TEXCOORD_0": 2
          },
          "indices": 3,
          "material": 0,
          "mode": 4
        }
      ]
    },
    {
      "name": "Object_1",
      "primitives": [
        {
          "attributes": {
            "NORMAL": 5,
            "POSITION": 4,
            "TEXCOORD_0": 6
          },
          "indices": 7,
          "material": 1,
          "mode": 4
        }
      ]
    },
    {
      "name": "Object_2",
      "primitives": [
        {
          "attributes": {
            "NORMAL": 9,
            "POSITION": 8,
            "TEXCOORD_0": 10
          },
          "indices": 11,
          "material": 2,
          "mode": 4
        }
      ]
    },
    {
      "name": "Object_3",
      "primitives": [
        {
          "attributes": {
            "NORMAL": 13,
            "POSITION": 12,
            "TEXCOORD_0": 14
          },
          "indices": 15,
          "material": 3,
          "mode": 4
        }
      ]
    },
    {
      "name": "Object_4",
      "primitives": [
        {
          "attributes": {
            "NORMAL": 17,
            "POSITION": 16,
            "TEXCOORD_0": 18
          },
          "indices": 19,
          "material": 4,
          "mode": 4
        }
      ]
    },
    {
      "name": "Object_5",
      "primitives": [
        {
          "attributes": {
            "NORMAL": 21,
            "POSITION": 20,
            "TEXCOORD_0": 22
          },
          "indices": 23,
          "material": 5,
          "mode": 4
        }
      ]
    },
    {
      "name": "Object_6",
      "primitives": [
        {
          "attributes": {
            "NORMAL": 25,
            "POSITION": 24,
            "TEXCOORD_0": 26
          },
          "indices": 27,
          "material": 6,
          "mode": 4
        }
      ]
    },
    {
      "name": "Object_7",
      "primitives": [
        {
          "attributes": {
            "NORMAL": 29,
            "POSITION": 28,
            "TEXCOORD_0": 30
          },
          "indices": 31,
          "material": 7,
          "mode": 4
        }
      ]
    }
  ],
  "nodes": [
    {
      "children": [
        1
      ],
      "matrix": [
        0.9687080979347229,
        -3.861587406155444e-16,
        0.24820277094841003,
        0.0,
        0.24820277094841003,
        7.668058643130847e-16,
        -0.9687080979347229,
        0.0,
        1.8375175415710169e-16,
        1.0,
        8.38656744318021e-16,
        0.0,
        0.06661764532327652,
        -4.3877997086385266e-05,
        0.008382841944694519,
        1.0
      ],
      "name": "Sketchfab_model"
    },
    {
      "children": [
        2,
        3,
        4,
        5,
        6,
        7,
        8,
        9
      ],
      "name": "Mario.obj.cleaner.materialmerger.gles"
    },
    {
      "mesh": 0,
      "name": "Object_2"
    },
    {
      "mesh": 1,
      "name": "Object_3"
    },
    {
      "mesh": 2,
      "name": "Object_4"
    },
    {
      "mesh": 3,
      "name": "Object_5"
    },
    {
      "mesh": 4,
      "name": "Object_6"
    },
    {
      "mesh": 5,
      "name": "Object_7"
    },
    {
      "mesh": 6,
      "name": "Object_8"
    },
    {
      "mesh": 7,
      "name": "Object_9"
    }
  ],
  "samplers": [
    {
      "magFilter": 9729,
      "minFilter": 9987,
      "wrapS": 10497,
      "wrapT": 10497
    }
  ],
  "scene": 0,
  "scenes": [
    {
      "name": "Sketchfab_Scene",
      "nodes": [
        0
      ]
    }
  ],
  "textures": [
    {
      "sampler": 0,
      "source": 0
    },
    {
      "sampler": 0,
      "source": 1
    },
    {
      "sampler": 0,
      "source": 2
    },
    {
      "sampler": 0,
      "source": 3
    },
    {
      "sampler": 0,
      "source": 4
    },
    {
      "sampler": 0,
      "source": 5
    },
    {
      "sampler": 0,
      "source": 6
    },
    {
      "sampler": 0,
      "source": 7
    },
    {
      "sampler": 0,
      "source": 8
    }
  ]
}
