{
  "accessors": [
    {
      "bufferView": 2,
      "componentType": 5126,
      "count": 9186,
      "max": [
        20.74049949645996,
        21.054370880126953,
        21.15431022644043
      ],
      "min": [
        -20.191120147705078,
        -19.877239227294922,
        -50.96092987060547
      ],
      "type": "VEC3"
    },
    {
      "bufferView": 2,
      "byteOffset": 110232,
      "componentType": 5126,
      "count": 9186,
      "max": [
        0.9995514154434204,
        0.999121904373169,
        1.0
      ],
      "min": [
        -0.999121904373169,
        -0.999121904373169,
        -1.0
      ],
      "type": "VEC3"
    },
    {
      "bufferView": 2,
      "byteOffset": 220464,
      "componentType": 5126,
      "count": 9186,
      "max": [
        1.0,
        1.0,
        1.0
      ],
      "min": [
        0.9960784316062927,
        0.9960784316062927,
        0.9960784316062927
      ],
      "type": "VEC3"
    },
    {
      "bufferView": 1,
      "componentType": 5126,
      "count": 9186,
      "max": [
        0.9787799715995789,
        0.9952200055122375
      ],
      "min": [
        0.010169999673962593,
        0.01331000030040741
      ],
      "type": "VEC2"
    },
    {
      "bufferView": 0,
      "componentType": 5125,
      "count": 51888,
      "type": "SCALAR"
    }
  ],
  "asset": {
    "extras": {
      "author": "Slime103 (https://sketchfab.com/slime103)",
      "license": "CC-BY-SA-4.0 (http://creativecommons.org/licenses/by-sa/4.0/)",
      "source": "https://sketchfab.com/3d-models/starbucks-grande-coffee-cup-caution-hot-adf1013df0d24037a506cd9708ddbc28",
      "title": "Starbucks Grande Coffee Cup (Caution HOT!)"
    },
    "generator": "Sketchfab-12.65.0",
    "version": "2.0"
  },
  "bufferViews": [
    {
      "buffer": 0,
      "byteLength": 207552,
      "name": "floatBufferViews",
      "target": 34963
    },
    {
      "buffer": 0,
      "byteLength": 73488,
      "byteOffset": 207552,
      "byteStride": 8,
      "name": "floatBufferViews",
      "target": 34962
    },
    {
      "buffer": 0,
      "byteLength": 330696,
      "byteOffset": 281040,
      "byteStride": 12,
      "name": "floatBufferViews",
      "target": 34962
    }
  ],
  "buffers": [
    {
      "byteLength": 611736,
      "uri": "scene.bin"
    }
  ],
  "images": [
    {
      "uri": "textures/starbuckscup2_baseColor.png"
    }
  ],
  "materials": [
    {
      "doubleSided": true,
      "name": "starbuckscup2",
      "pbrMetallicRoughness": {
        "baseColorTexture": {
          "index": 0
        },
        "metallicFactor": 0.0
      }
    }
  ],
  "meshes": [
    {
      "name": "starbuckscup2_0",
      "primitives": [
        {
          "attributes": {
            "COLOR_0": 2,
            "NORMAL": 1,
            "POSITION": 0,
            "TEXCOORD_0": 3
          },
          "indices": 4,
          "material": 0,
          "mode": 4
        }
      ]
    }
  ],
  "nodes": [
    {
      "children": [
        1
      ],
      "matrix": [
        1.0,
        0.0,
        0.0,
        0.0,
        0.0,
        2.220446049250313e-16,
        -1.0,
        0.0,
        0.0,
        1.0,
        2.220446049250313e-16,
        0.0,
        0.0,
        0.0,
        0.0,
        1.0
      ],
      "name": "Sketchfab_model"
    },
    {
      "children": [
        2,
        4
      ],
      "name": "Root"
    },
    {
      "children": [
        3
      ],
      "matrix": [
        0.12253000000000001,
        -0.044870000000000014,
        0.0,
        0.0,
        0.044870000000000014,
        0.12253000000000001,
        0.0,
        0.0,
        0.0,
        0.0,
        0.13048,
        0.0,
        0.0,
        0.0,
        6.70513,
        1.0
      ],
      "name": "starbuckscup2"
    },
    {
      "mesh": 0,
      "name": "starbuckscup2_0"
    },
    {
      "children": [
        5
      ],
      "matrix": [
        0.9446800000000001,
        -0.32799000000000006,
        0.0,
        0.0,
        0.14989000000000002,
        0.43171000000000004,
        0.8894700000000001,
        0.0,
        -0.29174,
        -0.8402700000000001,
        0.45699,
        0.0,
        -4.56572,
        -9.22598,
        9.853230000000002,
        1.0
      ],
      "name": "Sun.001"
    },
    {
      "name": "Sun.001"
    }
  ],
  "samplers": [
    {
      "magFilter": 9729,
      "minFilter": 9987,
      "wrapS": 10497,
      "wrapT": 10497
    }
  ],
  "scene": 0,
  "scenes": [
    {
      "name": "Sketchfab_Scene",
      "nodes": [
        0
      ]
    }
  ],
  "textures": [
    {
      "sampler": 0,
      "source": 0
    }
  ]
}
